PathFileType	4	(X/Y/Z)	OpenSim_Sub07_EMGStiffKnee_Gyro.trc
DataRate	CameraRate	NumFrames	NumMarkers	Units	OrigDataRate	OrigDataStartFrame	OrigNumFrames
100	100	27	8	m	100	924	7388
Frame#	Time	torso_imu_offset_imu	pelvis_imu_offset_imu	tibia_r_imu_offset_imu	femur_r_imu_offset_imu	tibia_l_imu_offset_imu	femur_l_imu_offset_imu	toes_r_imu_offset_imu	toes_l_imu_offset_imu
				X1	Y1	Z1	X2	Y2	Z2	X3	Y3	Z3	X4	Y4	Z4	X5	Y5	Z5	X6	Y6	Z6	X7	Y7	Z7	X8		Y8	Z8	

924	9.23000000	0.06000353	0.10243630	0.03237652	0.04044281	0.12216849	0.24927449	0.17234251	0.94414647	3.90487148	0.69209726	-0.07580080	0.83220630	-0.32777834	0.01402601	0.51813495	-0.24769336	-0.21104413	0.72682952	-0.76555641	4.80784862	-0.19312015	-0.05476738	-0.02445463	0.11414362
925	9.24000000	0.04003669	0.10606990	0.04464411	0.05738769	0.14578415	0.22160621	0.54192797	1.11612544	4.14219285	0.69288094	-0.00718352	0.69557163	-0.20884637	0.00800303	0.56866102	-0.23021829	-0.20406943	0.71683817	-0.99505089	4.78861385	-0.20935920	-0.05191159	-0.00653576	0.11269630
926	9.25000000	0.02231653	0.10501535	0.06075412	0.06804142	0.17041390	0.20448783	1.15152862	1.28315141	4.32864997	0.68628441	0.04153928	0.57041226	-0.03579714	0.02558527	0.62840642	-0.20806732	-0.20594159	0.69442466	-1.30327703	4.69848260	-0.25123794	-0.06155332	0.02902679	0.11428482
927	9.26000000	0.00105941	0.10514178	0.07180498	0.06215398	0.19242442	0.19392547	1.98672590	1.60308319	4.37031219	0.61898826	0.07186689	0.45016531	0.08332594	0.04430438	0.64219594	-0.17860531	-0.21388828	0.64064849	-1.54130168	4.64072246	-0.24974425	-0.07699486	-0.00317437	0.12858824
928	9.27000000	-0.01379364	0.10926555	0.08300432	0.05791227	0.21130250	0.18752950	2.79817287	2.07090788	4.33285947	0.47943857	0.10131765	0.32189003	0.12280412	0.05326410	0.63276704	-0.11520418	-0.22876646	0.63400699	-1.65311964	4.63648583	-0.12624757	-0.05571904	-0.02299083	0.13414835
929	9.28000000	-0.01998753	0.10475359	0.08879855	0.06014795	0.21910051	0.18752224	3.05030592	2.43742835	4.33190573	0.32415790	0.11455465	0.19481521	0.07198503	0.05083249	0.62722715	-0.09495352	-0.23772399	0.65442029	-1.62796949	4.63726508	0.11154412	-0.05539889	0.00890268	0.12642676
930	9.29000000	-0.02351675	0.09845428	0.09299678	0.06002878	0.19757470	0.18589369	2.80141887	2.64440160	4.47054853	0.16811783	0.10038895	0.06908524	-0.03600343	0.05087124	0.64890101	-0.08371415	-0.23683673	0.64473223	-1.45076918	4.61994551	0.40397251	-0.06377443	0.01190651	0.12522024
931	9.30000000	-0.02307904	0.09203466	0.09201342	0.06302043	0.14750990	0.18584116	2.20312977	2.71165207	4.69191177	0.00064292	0.07854251	-0.05977306	-0.08024943	0.03957692	0.63840506	-0.03927427	-0.23401320	0.63982449	-1.25128555	4.50329948	0.72032623	-0.04934081	-0.00663638	0.12163165
932	9.31000000	-0.02605250	0.07385390	0.08723247	0.07534950	0.10896903	0.18340766	1.05017094	2.58712312	4.71875220	-0.17629661	0.02411207	-0.19516920	-0.02291223	0.03805605	0.60619466	-0.06200327	-0.23355260	0.66661176	-1.06540174	4.35467221	1.05088031	-0.05248359	-0.04221709	0.11922213
933	9.32000000	-0.03191458	0.04999544	0.08171276	0.09323136	0.07474775	0.18148780	-0.23414779	2.56294944	4.43909053	-0.38500840	-0.01914242	-0.33940859	0.03511283	0.03618025	0.60520974	-0.12295581	-0.23261230	0.72327172	-0.72237746	4.47639183	1.46760790	-0.05940339	-0.02174073	0.10132267
934	9.33000000	-0.03008423	0.02613004	0.07484418	0.09579411	0.00430531	0.17906992	-0.80069214	2.58041980	4.08426609	-0.70245847	0.10426258	-0.43489029	0.04120359	0.04353192	0.64596085	-0.16158479	-0.22559194	0.72845577	-0.55739316	4.75003063	1.78561866	0.00341317	-0.03276692	0.08991946
935	9.34000000	-0.03557606	0.00134717	0.06725417	0.11056345	-0.07929338	0.17493610	-0.98143615	2.23533983	3.66071426	-1.11891698	0.29504520	-0.53392744	0.09955579	0.08755324	0.67059494	-0.18326705	-0.22331534	0.70989135	-0.67771296	4.82817602	1.70763748	-0.01192623	-0.02430631	0.09708486
936	9.35000000	-0.04105023	-0.01679666	0.06868061	0.15610861	-0.13680365	0.17803285	-0.99657927	1.97595695	3.21765837	-1.40672263	0.29426597	-0.71217490	0.12718268	0.09639950	0.67275778	-0.21463653	-0.21749727	0.71075088	-0.62934975	4.71137175	1.34326055	-0.01725539	-0.09389555	0.12332392
937	9.36000000	-0.04890674	-0.04041513	0.07359447	0.21422755	-0.14525458	0.18549325	-0.66380263	1.98953147	3.00526112	-1.35396354	0.12977553	-0.95182167	0.13114035	0.12188251	0.71031533	-0.23728527	-0.20869851	0.69703657	-0.47482876	4.48765673	0.87129190	0.00199690	-0.09529627	0.14290380
938	9.37000000	-0.05644974	-0.06632229	0.08574205	0.26651645	-0.14315581	0.20668945	-0.53634688	1.97310643	2.91099268	-0.99861719	-0.07105988	-1.18840898	0.08534711	0.16028213	0.79921543	-0.24130273	-0.20990085	0.64793011	-0.26698767	4.16682588	0.47671587	-0.00107798	-0.08667026	0.18689063
939	9.38000000	-0.05165717	-0.09182920	0.10402003	0.31627026	-0.14687111	0.23267967	-0.35902178	1.83986708	2.82665722	-0.50073532	-0.16728722	-1.30009061	0.06866691	0.18065905	0.86626014	-0.28636029	-0.22247057	0.55682816	-0.06069938	3.72637753	0.23145481	-0.00123543	-0.07153355	0.24051916
940	9.39000000	-0.05122066	-0.12689071	0.11714188	0.36834444	-0.15612209	0.26043337	-0.23115730	1.60393895	2.66719680	-0.01970482	-0.10309956	-1.26719892	0.08089364	0.21148493	0.92284933	-0.36787383	-0.22836847	0.47611835	0.07767636	3.18293465	0.10985918	-0.04777762	-0.16723006	0.30771576
941	9.40000000	-0.05688351	-0.15762010	0.12100245	0.41185670	-0.16870821	0.28607850	-0.08326042	1.26582503	2.28223315	0.23379430	-0.02617186	-1.09301349	0.07352462	0.26144913	1.00676148	-0.37160385	-0.23763596	0.41023321	0.14193601	2.64056424	0.08633576	-0.07791384	-0.18219588	0.34858627
942	9.41000000	-0.07541602	-0.18955583	0.12840187	0.42381990	-0.17580688	0.31336232	0.06187358	0.76475202	1.74804774	0.20065721	-0.01047706	-0.80559435	0.09016661	0.30364704	1.11207646	-0.30408315	-0.24647133	0.32448042	0.11718892	2.18188059	0.14792677	-0.06958333	-0.19912739	0.40656708
943	9.42000000	-0.10324899	-0.22029751	0.13936951	0.42141119	-0.17068028	0.33991323	0.13796499	0.31711731	1.23645659	0.08485889	0.08814500	-0.52367388	0.09724334	0.32201669	1.19856334	-0.20053876	-0.20967813	0.24031578	0.00843739	1.80241144	0.33869306	-0.11076071	-0.22003278	0.46768046
944	9.43000000	-0.12877709	-0.25443572	0.14668028	0.40557179	-0.13258823	0.36096668	0.23322026	0.09692275	0.73639957	0.05947811	0.18057631	-0.32530562	0.11071130	0.34014328	1.27626805	-0.01667559	-0.12719133	0.16491815	-0.13671166	1.42404582	0.66379187	-0.12331525	-0.31516484	0.50658251
945	9.44000000	-0.15629922	-0.29614942	0.16104724	0.38915118	-0.07405603	0.35814693	0.48025567	-0.01931770	0.20463064	0.10551112	0.01987984	-0.17648240	0.15836455	0.35174997	1.35999420	0.23217782	-0.03582985	0.08763492	-0.25249215	0.94890496	1.08567817	-0.22090686	-0.44688078	0.55022771
946	9.45000000	-0.18391284	-0.33116869	0.17823421	0.39506754	-0.03690787	0.32042484	0.78316810	-0.16928825	-0.32270076	0.11702358	-0.36580570	-0.02086880	0.17928776	0.35053683	1.47347116	0.41231300	0.03166890	0.01483710	-0.26325720	0.70030744	1.49482788	-0.28983793	-0.52849985	0.57612205
947	9.46000000	-0.21628796	-0.35252241	0.19045422	0.41507470	-0.00423358	0.25221117	1.06786601	-0.22590485	-0.80766178	0.04187054	-0.68404048	0.12147757	0.23900435	0.37904388	1.58567798	0.45607400	0.06115581	-0.03903547	0.03101255	-0.10559508	1.86295165	-0.36688788	-0.57381988	0.57227790
948	9.47000000	-0.26683132	-0.35418818	0.20277586	0.46629170	0.02462747	0.18411151	1.50500194	-0.29799984	-1.16668308	0.13113499	-0.81266113	0.18100604	0.23101553	0.40770344	1.67770331	0.42869700	0.08386677	-0.10364234	0.34296038	-1.21460164	1.77385766	-0.36499977	-0.75550449	0.50938712
949	9.48000000	-0.31189903	-0.34526762	0.21621910	0.51483015	0.03179896	0.14359685	1.85898873	-0.59712881	-1.31848094	0.75823923	-0.88277236	0.03688837	0.21578178	0.42002575	1.73197583	0.42926966	0.12770632	-0.18367069	0.28347250	-1.94468797	0.86028232	-0.12681350	-1.07763510	0.44927158
950	9.49000000	-0.33814026	-0.34218718	0.21485297	0.47133811	0.03275115	0.11316001	1.67262394	-0.85095479	-1.21026957	1.63347582	-0.89002754	-0.32982829	0.11024175	0.37589010	1.78935791	0.50305159	0.19675016	-0.26366266	0.70048540	-2.63673406	0.00504169	-0.15305369	-1.25358623	0.54694692
